<svg width="390" height="787" viewBox="0 0 390 787" fill="none" xmlns="http://www.w3.org/2000/svg">
<g opacity="0.2">
<path d="M362.547 39.0341C377.922 30.0518 390.077 27.6067 398.92 31.7527C410.266 37.0688 416.038 53.1546 416.076 79.5636C416.117 108.187 409.481 149.9 396.339 203.535C378.95 274.554 358.435 338.356 335.383 393.169C315.356 440.783 292.768 483.111 268.232 518.973C225.286 581.776 182.465 616.759 142.583 645.222C99.8408 675.728 57.5601 693.265 16.9339 697.34C-18.3907 700.882 -51.7962 694.316 -82.363 677.814C-146.048 643.42 -182.285 573.094 -180.532 524.966C-179.708 502.395 -170.491 486.044 -154.584 478.954C-87.2335 448.93 -29.9815 418.011 20.45 384.431C89.9403 338.163 145.425 287.099 185.38 232.667C213.939 193.757 256.653 138.243 297.961 94.7525C323.529 67.8247 345.114 49.2193 362.555 39.0292L362.547 39.0341ZM141.744 644.036L140.897 642.855C180.56 614.554 223.149 579.752 265.838 517.335C290.254 481.633 312.754 439.48 332.706 392.045C355.706 337.375 376.162 273.72 393.526 202.85C406.609 149.441 413.22 107.956 413.182 79.5674C413.147 54.3937 407.938 39.1939 397.704 34.3979C380.326 26.2511 346.564 47.8207 300.071 96.77C258.878 140.149 216.24 195.562 187.728 234.4C147.573 289.105 91.8354 340.408 22.0703 386.858C-28.4902 420.525 -85.8894 451.518 -153.391 481.609C-168.24 488.226 -176.835 503.663 -177.622 525.065C-179.348 572.3 -143.666 641.387 -80.9812 675.241C-50.937 691.464 -18.0908 697.918 16.6426 694.44C56.7594 690.415 98.5656 673.065 140.892 642.847L141.739 644.028L141.744 644.036Z" fill="#428EFF" fill-opacity="0.7"/>
<path d="M352.017 71.4488C366.169 63.1803 377.342 60.9378 385.441 64.7882C407.249 75.1379 406.298 126.947 382.537 223.183C350.168 347.437 307.44 446.814 255.54 518.559C213.414 576.79 172.81 607.823 135.197 632.677C96.9968 659.427 59.3732 674.828 23.3792 678.435C-8.07245 681.593 -37.6975 675.81 -64.6909 661.235C-83.2889 651.192 -109.806 631.84 -130.476 596.711C-145.16 571.75 -153.217 544.144 -152.569 520.967C-151.916 497.585 -142.62 480.524 -126.376 472.934C-5.87014 414.722 116.265 346.616 193.181 243.406C219.317 208.341 258.128 158.56 294.653 120.507C317.291 96.9219 336.458 80.5387 352.017 71.4488ZM110.814 645.089C118.397 640.659 126.014 635.77 133.662 630.414C171.087 605.68 211.468 574.822 253.331 516.949C305.031 445.477 347.614 346.41 379.888 222.492C392.048 173.267 398.244 135.028 398.299 108.856C398.344 85.6828 393.631 71.6779 384.286 67.2509C368.459 59.7396 338.966 78.2976 296.642 122.393C260.214 160.344 221.476 210.038 195.387 245.03C118.12 348.715 -4.34491 417.025 -125.183 475.398C-140.466 482.538 -149.198 498.741 -149.822 521.038C-150.452 543.709 -142.533 570.789 -128.104 595.314C-116.871 614.406 -96.5303 640.921 -63.3856 658.819C-36.8834 673.13 -7.78627 678.816 23.1126 675.712C51.4557 672.863 80.8688 662.585 110.823 645.084L110.814 645.089Z" fill="#428EFF" fill-opacity="0.7"/>
<path d="M341.483 103.82C354.43 96.256 364.613 94.2208 371.975 97.7706C391.764 107.298 390.7 154.742 368.725 242.815C336.421 358.956 294.073 451.586 242.849 518.146C201.171 572.301 161.301 600.094 127.803 620.137C94.1204 643.168 61.0687 656.46 29.6288 659.6C2.00531 662.354 -23.8903 657.306 -47.3578 644.596C-70.9013 631.852 -90.8942 611.928 -105.182 586.972C-118.227 564.203 -125.185 539.497 -124.772 517.414C-124.315 493.044 -114.864 475.115 -98.1553 466.917L-89.0207 462.165C-39.9488 436.634 15.6734 407.691 66.7099 373.993C125.113 335.418 169.037 296.214 200.998 254.135C235.487 208.735 265.891 172.425 291.365 146.238C311.063 125.979 327.812 111.818 341.48 103.834L341.483 103.82ZM108.473 629.361C114.432 625.88 120.409 622.084 126.418 617.977C159.781 598.012 199.402 570.388 240.82 516.576C291.835 450.273 334.041 357.939 366.248 242.148C387.577 156.679 389.134 108.868 370.862 100.074C356.831 93.3127 330.702 109.444 293.199 148.013C267.79 174.138 237.459 210.361 203.034 255.679C170.905 297.99 126.768 337.386 68.1239 376.125C16.9751 409.9 -38.7057 438.877 -87.8411 464.434L-97.0008 469.201C-112.841 476.982 -121.777 494.103 -122.218 517.462C-122.62 538.775 -115.6 563.646 -102.976 585.695C-88.9199 610.234 -69.2661 629.828 -46.1507 642.339C-23.143 654.799 2.26317 659.74 29.3687 657.041C54.7993 654.511 81.3309 645.218 108.473 629.361Z" fill="#428EFF" fill-opacity="0.7"/>
<path d="M330.939 136.019C342.656 129.173 351.819 127.43 358.507 130.71C376.274 139.427 375.101 182.516 354.901 262.443C322.645 370.558 280.673 456.434 230.14 517.721C188.439 568.301 149.623 592.307 120.447 607.564C50.3252 654.077 -0.315171 644.297 -30.4455 627.888C-50.7937 616.809 -68.0054 599.32 -80.2167 577.324C-91.3872 557.205 -97.4288 534.855 -97.2306 514.404C-96.9878 489.225 -87.0244 469.694 -69.9521 460.889C-57.6676 454.016 -44.9643 447.032 -32.6845 440.286C57.533 390.681 150.816 339.387 208.785 264.849C263.591 194.408 303.993 151.75 330.917 136.02L330.939 136.019ZM135.609 596.49C162.073 581.029 194.219 557.558 228.318 516.198C278.646 455.155 320.467 369.559 352.616 261.798C372.201 184.277 373.84 140.872 357.474 132.843C345.236 126.845 322.459 140.546 289.775 173.587C267.913 195.695 242.038 226.019 210.693 266.309C152.419 341.228 58.9055 392.646 -31.5129 442.368C-43.7927 449.115 -56.4827 456.101 -68.7972 462.981C-85.3596 471.544 -94.5905 489.793 -94.8257 514.427C-95.0162 534.469 -89.0848 556.4 -78.1117 576.162C-66.1174 597.767 -49.2315 614.93 -29.2802 625.79C0.286421 641.887 50.0378 651.433 119.205 605.534L119.314 605.471C124.456 602.781 129.905 599.811 135.621 596.472L135.609 596.49Z" fill="#428EFF" fill-opacity="0.7"/>
<path d="M320.278 168.307C330.255 162.478 338.766 160.407 345.086 163.576C360.836 171.493 359.533 210.248 341.098 282.069C308.874 382.248 267.279 461.369 217.46 517.289C185.595 553.058 151.449 578.485 113.078 595.009C53.2227 633.173 10.9312 624.848 -13.9939 611.123C-31.1167 601.703 -45.5129 586.708 -55.64 567.779C-64.9293 550.419 -70.0324 530.636 -70.0143 512.067C-69.9925 486.107 -60.1416 465.595 -42.9259 455.537C-42.5242 455.302 -42.1225 455.067 -41.711 454.849C-21.0022 442.469 -0.162188 430.564 19.9817 419.042C97.4056 374.787 170.528 332.988 216.631 275.55C251.454 232.181 291.818 184.923 320.29 168.289L320.278 168.307ZM140.881 578.496C167.621 562.873 192.331 542.183 215.808 515.825C265.419 460.127 306.859 381.277 338.975 281.453C356.839 211.844 358.573 172.826 344.095 165.55C318.24 152.559 245.657 242.935 218.336 276.949C171.985 334.712 98.6733 376.61 21.0653 420.974C0.924804 432.482 -19.8936 444.386 -40.6274 456.781C-57.9076 466.19 -67.7995 486.344 -67.814 512.086C-67.8299 530.294 -62.8208 549.705 -53.7044 566.749C-43.7845 585.304 -29.6876 599.979 -12.9435 609.194C11.4674 622.634 52.9546 630.754 111.961 593.097L112.112 593.009C121.976 588.776 131.557 583.943 140.881 578.496Z" fill="#428EFF" fill-opacity="0.7"/>
<path d="M309.858 200.41C318.713 195.237 326.16 193.496 331.686 196.363C345.424 203.487 343.981 237.949 327.283 301.714C295.055 394.045 253.84 466.42 204.761 516.881C164.884 557.882 128.889 575.188 105.681 582.483C55.9352 612.491 21.7424 605.519 1.83596 594.351C-25.3497 579.101 -43.0849 546.227 -43.3359 510.596C-43.5387 482.945 -32.47 459.944 -13.7311 448.996C-13.6474 448.947 -13.5721 448.903 -13.4884 448.855C15.5397 430.366 43.1639 414.181 69.871 398.522C133.734 361.087 188.88 328.756 224.442 286.306C256.105 248.54 287.467 213.504 309.871 200.414L309.858 200.41ZM143.438 563.179C193.889 533.704 268.414 464.215 325.348 301.112C341.514 239.356 343.343 204.691 330.756 198.155C310.007 187.389 253.255 255.075 225.988 287.607C190.197 330.337 134.912 362.738 70.89 400.266C44.1996 415.916 16.5922 432.09 -12.4443 450.584C-12.5196 450.628 -12.5949 450.672 -12.6703 450.716C-30.8149 461.317 -41.5056 483.658 -41.3116 510.583C-41.056 545.492 -23.7358 577.674 2.8315 592.577C22.2817 603.483 55.7595 610.288 104.736 580.673L104.845 580.609L104.96 580.576C114.706 577.524 127.938 572.234 143.438 563.179Z" fill="#428EFF" fill-opacity="0.7"/>
<path d="M299.167 232.57C306.867 228.071 313.537 226.345 318.351 228.954C330.074 235.32 328.478 265.541 313.471 321.345C281.207 405.948 240.372 471.556 192.06 516.45C174.189 533.054 155.739 546.341 137.228 555.93C118.608 565.583 104.886 568.843 98.2691 569.93C74.1442 583.361 52.2994 588.071 33.3333 583.911C16.9557 580.32 3.44072 570.119 -5.73505 554.414C-15.8367 537.124 -19.6981 514.95 -16.3161 493.55C-12.7293 470.905 -1.70963 452.894 14.7277 442.829C52.595 417.219 87.0678 396.809 117.479 378.805C167.018 349.48 206.146 326.316 232.249 297.018L233.856 295.213C253.134 273.602 279.508 244.056 299.159 232.575L299.167 232.57ZM145.472 549.27C158.854 541.451 174.232 530.476 190.8 515.082C238.899 470.38 279.576 405 311.708 320.767C326.221 266.77 328.168 236.4 317.463 230.586C301.665 222.011 260.084 268.608 235.241 296.451L233.635 298.255C207.337 327.758 168.105 350.993 118.424 380.402C88.0286 398.396 53.581 418.791 15.7304 444.392C-0.268285 454.189 -10.9836 471.741 -14.4798 493.849C-17.8024 514.832 -14.031 536.563 -4.13653 553.48C4.7747 568.733 17.8739 578.625 33.7354 582.102C52.2784 586.171 73.7435 581.503 97.514 568.234L97.6563 568.151L97.8196 568.123C104.343 567.068 121.762 563.122 145.48 549.265L145.472 549.27Z" fill="#428EFF" fill-opacity="0.7"/>
<path d="M288.315 264.262C295.053 260.326 300.906 258.796 305.104 261.236C314.833 266.878 313.055 292.964 299.646 340.974L299.614 341.072C277.397 393.912 238.5 467.161 179.354 516.012C161.961 530.379 143.67 541.786 126.47 548.989C112.941 554.655 99.9664 557.714 90.8353 557.38C42.8437 580.841 22.1771 556.17 15.5161 544.462C6.9829 529.472 4.69428 508.28 9.39069 487.766C14.4297 465.724 26.3435 447.628 42.9388 436.796C90.9859 402.382 130.862 379.096 162.896 360.391C197.5 340.186 222.471 325.608 240.066 307.725C241.466 306.3 242.925 304.818 244.415 303.295C258.638 288.788 275.167 271.944 288.315 264.262ZM298.048 340.468C311.023 293.983 313.113 267.815 304.265 262.682C293.009 256.155 264.488 285.235 245.618 304.47C244.128 305.993 242.67 307.475 241.269 308.901C223.519 326.942 198.461 341.581 163.757 361.846C131.735 380.532 91.9136 403.797 43.9 438.192C27.8709 448.648 15.9078 466.851 11.0415 488.151C6.44428 508.259 8.66451 529.007 16.992 543.644C30.5896 567.553 57.3137 571.982 90.3004 555.792L90.4943 555.701L90.7037 555.714C108.685 556.478 142.753 544.098 178.305 514.735C210.798 487.901 257.953 435.876 298.058 340.485L298.048 340.468Z" fill="#428EFF" fill-opacity="0.7"/>
<path d="M276.955 295.564C283.057 291.999 288.413 290.445 292.086 292.832C295.863 295.281 297.32 301.482 296.539 311.791C295.693 323.004 292.095 339.424 285.84 360.613L285.799 360.716C245.367 447.076 198.692 492.6 166.661 515.576C129.61 542.161 97.6119 549.36 83.3801 544.83C52.1182 556.729 39.1939 542.966 34.2664 533.686C20.7292 508.191 34.1716 456.607 71.1681 430.775C132.069 384.678 174.492 361.523 205.471 344.605C224.297 334.326 237.91 326.901 247.907 318.418C249.545 317.033 251.256 315.561 253.009 314.065C260.963 307.236 269.51 299.903 276.951 295.556L276.955 295.564ZM284.413 360.131C295.987 320.875 298.298 298.661 291.274 294.093C284.059 289.412 267.393 303.715 253.992 315.211C252.245 316.716 250.529 318.179 248.882 319.569C238.77 328.142 225.107 335.596 206.197 345.924C175.26 362.818 132.887 385.943 72.0565 431.988C55.6122 443.462 42.2685 461.819 35.4144 482.369C28.9627 501.704 29.0372 520.624 35.593 532.979C43.7218 548.295 60.5959 551.967 83.0903 543.335L83.3358 543.237L83.5893 543.325C95.0627 547.149 126.426 542.592 165.781 514.358C197.657 491.483 244.116 446.164 284.413 360.131Z" fill="#428EFF" fill-opacity="0.7"/>
<path d="M190.715 360.604C214.66 346.615 231.144 339.762 242.59 335.009C248.026 332.745 252.319 330.967 255.829 329.097C256.749 328.615 257.673 328.121 258.596 327.626C266.744 323.26 275.164 318.746 279.713 322.555C283.425 325.661 286.672 335.023 272.024 380.258L271.983 380.361C247.318 427.051 217.986 464.906 184.803 492.886C149.965 522.26 121.564 531.599 107.743 534.556C93.5193 537.591 81.9554 536.744 75.9133 532.243C58.9978 535.321 52.1018 528.417 49.3049 522.055C44.7499 511.703 47.5685 494.411 56.8583 475.801C66.5544 456.37 82.0679 437.768 99.4188 424.752C138.083 393.896 167.817 373.982 190.715 360.604ZM256.454 330.262C252.889 332.153 248.566 333.959 243.101 336.229C220.763 345.512 179.195 362.791 100.231 425.796C61.9723 454.503 41.752 501.633 50.5132 521.529C54.2745 530.061 63.0714 533.301 75.9546 530.892L76.2463 530.834L76.4804 531.023C82.1392 535.444 93.4356 536.256 107.458 533.26C122.937 529.953 203.55 507.026 270.785 379.79C281.58 346.445 284.226 328.05 278.867 323.566C274.999 320.327 266.982 324.628 259.221 328.791C258.289 329.291 257.365 329.785 256.445 330.266L256.454 330.262Z" fill="#428EFF" fill-opacity="0.7"/>
<path d="M213.172 355.673C218.545 352.533 223.59 349.833 228.287 347.573C251.469 336.447 260.91 338.984 264.012 339.815C267.111 340.682 269.221 342.295 270.457 344.756C274.151 352.135 270.603 368.121 258.198 399.921L258.152 400.016C232.821 441.82 201.69 476.058 168.116 499.025C130.185 524.987 102.518 528.071 92.3824 528.189C80.723 528.331 72.2154 525.26 68.4136 519.54C62.893 517.873 59.6121 514.582 58.6381 509.764C56.3299 498.358 67.4687 481.165 77.2117 468.769C89.9736 452.529 107.888 434.752 127.649 418.731C161.761 390.095 190.441 368.953 213.172 355.673ZM263.724 340.917C242.802 335.313 197.265 361.783 128.384 419.606C92.2299 448.916 55.8956 490.39 59.7567 509.526C60.6484 513.954 63.746 516.97 68.9306 518.484L69.1346 518.545L69.2424 518.73C72.7856 524.218 80.9852 527.166 92.3667 527.028C134.792 526.513 204.456 486.364 257.149 399.432C269.24 368.422 272.917 352.215 269.433 345.252C268.338 343.069 266.521 341.69 263.719 340.909L263.724 340.917Z" fill="#428EFF" fill-opacity="0.7"/>
<path d="M235.952 350.529C249.921 342.368 259.751 339.403 265.619 341.53C269.176 342.815 271.297 345.906 272.092 350.976C273.458 359.636 268.036 374.412 263.238 385.279C257.764 397.7 250.344 411.19 244.343 419.634C212.017 465.143 177.768 489.741 154.742 502.362C127.974 517.034 100.638 523.95 81.6134 520.882C70.6184 519.107 63.3148 514.061 61.0246 506.682C55.281 488.128 81.8855 468.738 112.686 446.289C127.149 435.747 142.102 424.851 155.898 412.686C190.443 382.235 217.004 361.599 235.952 350.529ZM243.951 419.346L243.549 419.063C254.592 403.512 273.459 365.901 271.119 351.117C270.38 346.431 268.468 343.6 265.275 342.44C252.003 337.631 215.408 361.519 156.528 413.42C142.696 425.618 127.727 436.523 113.247 447.075C82.7442 469.305 56.4096 488.503 61.9441 506.392C64.1102 513.405 71.1455 518.202 81.7585 519.92C100.577 522.962 127.685 516.078 154.269 501.514C177.237 488.927 211.326 464.422 243.546 419.076L243.947 419.359L243.951 419.346Z" fill="#428EFF" fill-opacity="0.7"/>
</g>
</svg>
