<svg width="390" height="173" viewBox="0 0 390 173" fill="none" xmlns="http://www.w3.org/2000/svg">
<g opacity="0.3" filter="url(#filter0_d_1207_1389)">
<path d="M191.721 131.025C182.345 133.537 173.238 135.74 164.445 137.618C116.176 147.933 78.9592 148.342 53.8298 138.833C28.1203 129.108 15.7945 109.097 17.1908 79.3539C21.4342 -10.9401 33.6544 -69.4734 41.7405 -108.202C45.3799 -125.635 48.2549 -139.405 49.0311 -149.831C50.3203 -167.181 68.4983 -194.626 96.4672 -221.46C126.567 -250.335 161.218 -272.221 191.539 -281.506C233.357 -294.311 275.882 -319.077 304.191 -337.6C337.168 -359.176 370.371 -385.157 393.007 -407.102C407.618 -421.269 425.12 -426.306 443.613 -421.672C475.633 -413.646 506.487 -377.721 524.131 -327.921C532.492 -304.318 541.141 -279.907 548.03 -255.963C555.65 -229.489 560.228 -206.445 562.031 -185.518C564.18 -160.529 562.537 -137.817 557.008 -116.089C550.834 -91.8295 539.988 -69.3158 523.85 -47.2597C496.289 -9.59052 407.41 46.783 307.715 89.8305C266.931 107.439 227.381 121.466 191.72 131.021L191.721 131.025ZM418.022 -420.599C409.353 -418.276 401.178 -413.483 393.758 -406.289C371.075 -384.297 337.814 -358.269 304.786 -336.66C276.419 -318.103 233.801 -293.282 191.862 -280.44C161.697 -271.201 127.196 -249.408 97.2124 -220.641C69.4303 -193.987 51.3809 -166.814 50.1111 -149.726C49.3296 -139.222 46.4475 -125.423 42.8002 -107.95C34.7203 -69.2537 22.5146 -10.7778 18.2736 79.4275C16.9024 108.624 28.9868 128.263 54.1948 137.801C79.1282 147.233 116.143 146.809 164.213 136.539C206.369 127.533 255.842 111.03 307.283 88.8169C406.824 45.8373 495.523 -10.3918 522.982 -47.923C539.036 -69.8644 549.822 -92.2512 555.962 -116.375C561.46 -137.98 563.095 -160.568 560.954 -185.428C556.942 -232.071 539.744 -280.609 523.116 -327.549C505.598 -377.001 475.042 -412.653 443.37 -420.589C434.625 -422.782 426.107 -422.762 418.023 -420.596L418.022 -420.599Z" fill="#428EFF"/>
<path d="M192.693 111.432C185.276 113.419 178.052 115.19 171.043 116.735C126.842 126.477 92.7725 127.104 69.773 118.597C46.5245 109.997 35.2731 92.1442 36.3305 65.5349C38.946 -14.8674 49.2624 -70.5249 56.0869 -107.35C59.2911 -124.639 61.8203 -138.294 62.55 -148.837C63.7351 -165.88 80.3851 -192.081 106.003 -217.221C133.434 -244.14 165.593 -264.804 194.233 -273.918C232.754 -285.924 271.99 -308.476 298.119 -325.278C328.817 -345.018 358.716 -367.837 380.15 -387.889C393.679 -400.541 409.813 -404.891 426.813 -400.469C456.322 -392.796 484.695 -359.74 500.857 -314.194C516.145 -271.239 531.956 -226.82 535.66 -183.123C537.612 -160.107 536.091 -139.169 531.009 -119.115C525.343 -96.7446 515.406 -75.975 500.644 -55.6198C475.409 -20.5874 393.856 31.9202 302.327 72.0718C263.706 89.0122 226.263 102.441 192.69 111.436L192.693 111.432ZM402.521 -399.588C394.799 -397.518 387.503 -393.343 380.845 -387.119C359.369 -367.028 329.418 -344.165 298.672 -324.396C272.489 -307.561 233.172 -284.964 194.548 -272.922C166.052 -263.855 134.038 -243.28 106.716 -216.466C81.2695 -191.495 64.738 -165.547 63.5692 -148.75C62.8374 -138.145 60.2999 -124.465 57.093 -107.145C50.2723 -70.3475 39.9678 -14.7431 37.355 65.5857C36.3184 91.688 47.3385 109.193 70.1147 117.618C92.928 126.055 126.811 125.414 170.822 115.715C209.498 107.193 254.831 91.7653 301.923 71.1081C393.306 31.0225 474.687 -21.3472 499.829 -56.2514C514.52 -76.4993 524.398 -97.1536 530.032 -119.393C535.085 -139.332 536.597 -160.152 534.653 -183.052C530.959 -226.614 515.173 -270.967 499.906 -313.858C483.858 -359.079 455.762 -391.88 426.578 -399.468C418.283 -401.625 410.19 -401.646 402.52 -399.591L402.521 -399.588Z" fill="#428EFF"/>
<path d="M193.737 91.8586C188.245 93.33 182.877 94.665 177.636 95.8625C137.505 105.035 106.577 105.876 85.7148 98.3701C64.9272 90.8939 54.7528 75.1954 55.4764 51.7112C56.4854 -19.3181 64.6308 -70.1178 70.5791 -107.206C73.279 -124.038 75.4086 -137.333 76.0776 -147.853C77.1754 -164.845 91.9305 -189.195 115.547 -212.991C140.321 -237.954 169.987 -257.395 196.936 -266.335C260.781 -286.65 333.795 -338.673 367.299 -368.682C379.746 -379.819 394.52 -383.482 410.03 -379.274C437.024 -371.952 462.91 -341.76 477.59 -300.479C490.868 -263.382 505.913 -221.335 509.298 -180.737C511.05 -159.692 509.653 -140.53 505.022 -122.15C499.861 -101.669 490.84 -82.6453 477.446 -63.989C465.949 -47.7357 442.134 -27.6002 408.581 -5.76624C376.352 15.2074 336.701 36.5429 296.941 54.313C260.509 70.5944 225.187 83.4316 193.74 91.8576L193.737 91.8586ZM386.995 -378.587C380.226 -376.774 373.813 -373.214 367.929 -367.947C334.368 -337.885 261.212 -285.766 197.233 -265.407C170.422 -256.512 140.89 -237.153 116.216 -212.293C92.7604 -188.659 78.1077 -164.54 77.0229 -147.777C76.3515 -137.211 74.2163 -123.895 71.5127 -107.035C65.5716 -69.9756 57.434 -19.2163 56.4226 51.7486C55.7146 74.7616 65.6715 90.1356 86.0177 97.4545C106.711 104.899 137.46 104.044 177.415 94.9112C212.608 86.867 253.807 72.5202 296.546 53.42C336.265 35.6682 375.867 14.3574 408.058 -6.59078C441.509 -28.3592 465.236 -48.406 476.668 -64.569C489.995 -83.127 498.965 -102.045 504.092 -122.403C508.697 -140.675 510.088 -159.733 508.343 -180.665C504.971 -221.132 489.947 -263.116 476.688 -300.153C462.116 -341.133 436.483 -371.092 409.79 -378.333C401.926 -380.467 394.255 -380.533 386.992 -378.587L386.995 -378.587Z" fill="#428EFF"/>
<path d="M194.87 72.3113C191.254 73.2802 187.706 74.1812 184.214 75.0135C148.151 83.6123 120.371 84.6744 101.642 78.1702C83.3194 71.8059 74.2279 58.2557 74.6176 37.8967C74.0087 -24.4151 80.4809 -72.8562 85.2081 -108.224C87.245 -123.466 89.0038 -136.627 89.5996 -146.862C90.5948 -163.556 103.862 -186.695 125.083 -208.754C147.215 -231.758 174.387 -249.983 199.633 -258.75C224.887 -266.983 254.743 -281.468 285.984 -300.642C311.059 -316.031 336.011 -333.83 354.446 -349.473C365.808 -359.102 379.23 -362.078 393.257 -358.073C417.728 -351.09 441.123 -323.763 454.314 -286.754C468.297 -247.948 480.1 -213.001 482.927 -178.341C484.483 -159.269 483.205 -141.876 479.024 -125.171C474.37 -106.583 466.263 -89.301 454.238 -72.3436C443.836 -57.318 422.342 -38.7537 392.079 -18.6588C363.127 0.5642 327.421 20.1842 291.536 36.5869C257.318 52.225 224.148 64.4778 194.866 72.3239L194.87 72.3113ZM371.439 -357.606C365.63 -356.049 360.114 -353.097 355.013 -348.775C336.548 -333.105 311.556 -315.276 286.446 -299.866C255.147 -280.657 225.228 -266.14 199.918 -257.892C174.807 -249.169 147.758 -231.027 125.72 -208.117C104.641 -186.207 91.4669 -163.28 90.4861 -146.798C89.8884 -136.527 88.1265 -123.35 86.0865 -108.092C81.3631 -72.7519 74.8952 -24.3502 75.5056 37.9114C75.1235 57.8397 84.0086 71.093 101.919 77.3112C120.492 83.7615 148.109 82.6895 184.007 74.1309C215.725 66.5625 252.782 53.295 291.172 35.7463C327.018 19.3619 362.682 -0.231627 391.596 -19.4328C421.768 -39.4649 443.178 -57.9495 453.521 -72.8903C465.484 -89.7583 473.543 -106.939 478.171 -125.417C482.326 -142.023 483.597 -159.318 482.051 -178.286C479.232 -212.83 467.45 -247.713 453.49 -286.461C440.394 -323.197 417.23 -350.306 393.033 -357.209C385.59 -359.334 378.314 -359.452 371.445 -357.611L371.439 -357.606Z" fill="#428EFF"/>
<path d="M196.119 52.8086C194.32 53.2907 192.541 53.752 190.776 54.1943C158.783 62.2233 134.146 63.5036 117.55 57.9976C101.694 52.7371 93.6869 41.3271 93.7573 24.0779C91.4382 -30.3338 96.3626 -77.0624 99.9584 -111.181C101.384 -124.709 102.617 -136.394 103.117 -145.872C104.026 -162.527 115.509 -183.902 134.618 -204.518C154.129 -225.568 178.805 -242.57 202.326 -251.161C249.284 -266.917 307.43 -303.211 341.588 -330.264C351.878 -338.396 363.951 -340.682 376.501 -336.874C398.438 -330.219 419.337 -305.76 431.04 -273.038C443.052 -239.974 454.039 -207.669 456.557 -175.957C457.915 -158.861 456.76 -143.239 453.028 -128.209C448.883 -111.51 441.687 -95.9771 431.035 -80.716C421.73 -66.9181 402.551 -49.916 375.579 -31.5566C349.903 -14.0806 318.136 3.82562 286.13 18.8635C254.163 33.8795 223.181 45.5575 196.12 52.8122L196.119 52.8086ZM355.838 -336.647C351.008 -335.353 346.394 -332.999 342.097 -329.604C307.886 -302.51 249.641 -266.155 202.604 -250.374C179.209 -241.828 154.646 -224.903 135.22 -203.941C116.238 -183.462 104.839 -162.278 103.942 -145.817C103.439 -136.319 102.205 -124.623 100.779 -111.083C97.1835 -76.9915 92.2645 -30.2987 94.58 24.0718C94.5129 40.9297 102.324 52.0668 117.798 57.1997C134.248 62.6572 158.734 61.3713 190.576 53.3789C218.814 46.2836 251.739 34.0925 285.782 18.0953C317.749 3.07575 349.478 -14.805 375.122 -32.261C402.012 -50.5639 421.114 -67.4883 430.367 -81.2068C440.966 -96.3849 448.118 -111.83 452.239 -128.427C455.95 -143.367 457.096 -158.898 455.748 -175.901C453.239 -207.508 442.268 -239.752 430.28 -272.758C418.665 -305.232 397.98 -329.491 376.287 -336.071C369.239 -338.209 362.344 -338.383 355.843 -336.641L355.838 -336.647Z" fill="#428EFF"/>
<path d="M197.529 33.3595L197.33 33.4126C169.408 40.8753 147.914 42.3737 133.451 37.8694C120.059 33.7021 113.145 24.4108 112.904 10.2579C108.625 -37.1859 112.172 -83.488 114.762 -117.295C115.573 -127.883 116.275 -137.025 116.648 -144.889C117.456 -161.267 127.487 -181.461 144.162 -200.288C161.078 -219.387 183.264 -235.17 205.032 -243.583C225.263 -250.612 248.412 -261.523 273.852 -276.011C292.987 -286.911 312.992 -299.687 328.742 -311.065C337.966 -317.706 348.699 -319.299 359.791 -315.672C379.185 -309.33 397.57 -287.739 407.773 -259.324C417.911 -231.706 427.989 -202.334 430.194 -173.571C431.353 -158.447 430.321 -144.603 427.038 -131.24C423.4 -116.434 417.118 -102.643 407.834 -89.0842C391.558 -64.1585 340.468 -27.883 280.711 1.17501C251.051 15.5996 222.293 26.7238 197.529 33.3595ZM340.165 -315.722C336.326 -314.694 332.641 -312.926 329.177 -310.432C313.407 -299.04 293.374 -286.245 274.219 -275.336C248.744 -260.827 225.551 -249.9 205.289 -242.859C183.641 -234.49 161.56 -218.785 144.719 -199.768C128.156 -181.066 118.198 -161.045 117.396 -144.84C117.021 -136.969 116.321 -127.819 115.507 -117.227C112.917 -83.4467 109.375 -37.1841 113.652 10.2221C113.889 24.0277 120.62 33.0693 133.659 37.1285C147.987 41.5885 169.342 40.0888 197.129 32.6625L197.328 32.6094C222.047 25.9858 250.757 14.8783 280.377 0.47202C340.025 -28.5338 390.991 -64.7032 407.207 -89.5325C416.442 -103.021 422.687 -116.73 426.305 -131.446C429.566 -144.723 430.592 -158.488 429.442 -173.527C427.245 -202.189 417.183 -231.5 407.065 -259.069C396.94 -287.264 378.741 -308.676 359.569 -314.942C352.884 -317.129 346.327 -317.378 340.171 -315.728L340.165 -315.722Z" fill="#428EFF"/>
<path d="M199.05 14.0373C177.529 19.8038 160.817 21.0777 149.329 17.8205C138.405 14.722 132.59 7.54044 132.044 -3.53337C125.207 -44.9055 127.644 -93.1883 129.424 -128.447C129.702 -133.981 129.966 -139.204 130.167 -143.898C130.889 -160.261 139.246 -178.781 153.697 -196.052C168.271 -213.463 187.458 -227.65 207.724 -235.997C221.903 -241.144 260.799 -256.876 315.888 -291.857C324.058 -297.016 333.474 -297.916 343.12 -294.449C359.944 -288.402 375.798 -269.686 384.496 -245.606C392.858 -223.125 401.937 -196.981 403.822 -171.183C405.816 -143.917 399.536 -119.802 384.626 -97.4505C377.503 -86.0865 362.952 -72.196 342.557 -57.2835C323.132 -43.0824 299.868 -28.9667 275.28 -16.4641C249.888 -3.55433 225.193 6.53084 203.865 12.6974C202.234 13.1688 200.627 13.6148 199.047 14.0382L199.05 14.0373ZM324.395 -294.852C321.576 -294.097 318.851 -292.896 316.257 -291.259C307.443 -285.662 289.468 -274.556 268.106 -263.071C245.679 -251.01 225.452 -241.681 207.978 -235.342C187.823 -227.039 168.729 -212.923 154.227 -195.593C139.874 -178.441 131.574 -160.07 130.859 -143.861C130.658 -139.168 130.395 -133.941 130.118 -128.404C128.339 -93.1715 125.903 -44.9237 132.732 -3.62219L132.736 -3.58103C133.257 7.16262 138.9 14.1338 149.508 17.1407C161.545 20.5533 180.277 18.7842 203.675 12.0171C224.965 5.86078 249.616 -4.20513 274.972 -17.0975C299.527 -29.5837 322.763 -43.6802 342.16 -57.8586C362.487 -72.7185 376.973 -86.5456 384.058 -97.8421C398.884 -120.063 405.124 -144.038 403.145 -171.135C401.267 -196.839 392.206 -222.927 383.86 -245.359C375.232 -269.251 359.541 -287.801 342.908 -293.779C336.534 -296.072 330.261 -296.416 324.404 -294.847L324.395 -294.852Z" fill="#428EFF"/>
<path d="M201.282 -5.23821C186.001 -1.1436 173.641 -0.0557049 165.195 -2.10332C156.714 -4.16041 152.003 -9.2834 151.189 -17.3339C140.366 -53.2282 142.696 -116.071 143.688 -142.912C144.986 -176.445 172.428 -211.606 210.421 -228.413C241.056 -240.158 275.969 -258.464 296.83 -269.397C299.044 -270.557 301.124 -271.647 303.045 -272.651C310.181 -276.351 318.312 -276.535 326.545 -273.19C340.763 -267.415 354.049 -251.589 361.223 -231.886C368.779 -211.941 375.973 -190.494 377.454 -168.791C379.034 -145.634 373.792 -125.035 361.423 -105.814C349.555 -85.8482 313.612 -57.674 269.854 -34.0435C248.813 -22.6827 228.256 -13.6525 210.405 -7.92767C207.262 -6.92085 204.217 -6.02076 201.28 -5.23373L201.282 -5.23821ZM308.456 -274.074C306.699 -273.603 304.989 -272.939 303.332 -272.081C301.41 -271.08 299.334 -269.991 297.12 -268.828C276.25 -257.888 241.318 -239.57 210.662 -227.819C172.89 -211.109 145.602 -176.178 144.313 -142.876C143.318 -116.061 140.99 -53.2653 151.795 -17.481L151.811 -17.4202C152.583 -9.65312 157.131 -4.70839 165.332 -2.72176C175.293 -0.307011 190.815 -2.31866 210.216 -8.53549C228.033 -14.2474 248.558 -23.2611 269.562 -34.6045C313.225 -58.1866 349.076 -86.2712 360.898 -106.156C388.367 -148.835 375.834 -191.556 360.646 -231.659C353.53 -251.201 340.38 -266.883 326.325 -272.592C320.176 -275.09 314.096 -275.578 308.461 -274.068L308.456 -274.074Z" fill="#428EFF"/>
</g>
<defs>
<filter id="filter0_d_1207_1389" x="13.084" y="-423.345" width="553.858" height="577.018" filterUnits="userSpaceOnUse" color-interpolation-filters="sRGB">
<feFlood flood-opacity="0" result="BackgroundImageFix"/>
<feColorMatrix in="SourceAlpha" type="matrix" values="0 0 0 0 0 0 0 0 0 0 0 0 0 0 0 0 0 0 127 0" result="hardAlpha"/>
<feOffset dy="4"/>
<feGaussianBlur stdDeviation="2"/>
<feComposite in2="hardAlpha" operator="out"/>
<feColorMatrix type="matrix" values="0 0 0 0 0 0 0 0 0 0 0 0 0 0 0 0 0 0 0.25 0"/>
<feBlend mode="normal" in2="BackgroundImageFix" result="effect1_dropShadow_1207_1389"/>
<feBlend mode="normal" in="SourceGraphic" in2="effect1_dropShadow_1207_1389" result="shape"/>
</filter>
</defs>
</svg>
