<svg width="390" height="267" viewBox="0 0 390 267" fill="none" xmlns="http://www.w3.org/2000/svg">
<g opacity="0.3">
<path d="M78.9056 565.02C69.4809 567.545 60.3269 569.766 51.4917 571.665C2.98554 582.099 -34.3629 582.748 -59.5165 573.592C-85.2508 564.227 -97.4864 544.689 -95.8877 515.518C-91.0297 426.96 -78.3782 369.489 -70.0067 331.463C-66.2388 314.347 -63.2623 300.826 -62.4142 290.599C-61.0052 273.58 -42.5818 246.55 -14.3374 220.055C16.0591 191.544 50.9757 169.855 81.4641 160.55C123.512 147.717 166.35 123.152 194.88 104.804C228.115 83.4303 261.606 57.7357 284.466 36.0698C299.223 22.0826 316.818 17.0269 335.345 21.4478C367.423 29.1047 398.145 64.1226 415.52 112.832C423.754 135.919 432.27 159.795 439.024 183.226C446.494 209.132 450.935 231.695 452.605 252.201C454.596 276.687 452.796 298.967 447.104 320.307C440.747 344.134 429.714 366.28 413.374 388.012C385.467 425.128 295.904 480.991 195.577 523.86C154.534 541.395 114.753 555.411 78.9047 565.016L78.9056 565.02ZM309.657 22.6697C300.943 25.0048 292.708 29.759 285.215 36.8621C262.307 58.5745 228.757 84.3148 195.47 105.721C166.882 124.104 123.95 148.724 81.781 161.593C51.4491 170.852 16.6838 192.448 -13.595 220.852C-41.6508 247.17 -59.9434 273.932 -61.3312 290.695C-62.1851 300.998 -65.1689 314.547 -68.945 331.703C-77.31 369.697 -89.9466 427.112 -94.8016 515.583C-96.3715 544.218 -84.3756 563.393 -59.1433 572.577C-34.186 581.659 2.9602 580.997 51.2651 570.609C93.6279 561.498 143.382 544.99 195.15 522.869C295.323 480.068 384.703 424.348 412.507 387.367C428.762 365.748 439.735 343.727 446.056 320.034C451.717 298.814 453.508 276.657 451.525 252.296C447.809 206.592 430.873 159.117 414.499 113.203C397.249 64.8349 366.823 30.0824 335.094 22.5116C326.333 20.4195 317.785 20.4956 309.658 22.6732L309.657 22.6697Z" fill="#428EFF"/>
<path d="M80.0108 545.803C72.5557 547.801 65.2946 549.585 58.2513 551.147C13.8318 560.992 -20.3606 561.833 -43.3835 553.645C-66.6557 545.367 -77.8275 527.938 -76.5897 501.842C-73.4309 422.993 -62.709 368.354 -55.6162 332.203C-52.286 315.231 -49.6572 301.826 -48.8549 291.484C-47.5525 274.767 -30.6706 248.967 -4.79665 224.148C22.9087 197.572 55.3163 177.098 84.1165 167.972C122.852 155.945 162.374 133.572 188.705 116.926C219.64 97.3671 249.795 74.7957 271.437 54.9923C285.097 42.4977 301.316 38.1256 318.346 42.3481C347.907 49.6757 376.158 81.8974 392.074 126.446C407.13 168.46 422.7 211.906 426.127 254.725C427.933 277.278 426.267 297.817 421.035 317.514C415.2 339.484 405.091 359.914 390.142 379.97C364.587 414.485 282.402 466.509 190.287 506.484C151.42 523.35 113.758 536.765 80.0082 545.808L80.0108 545.803ZM293.964 43.374C286.201 45.4541 278.851 49.5963 272.129 55.7434C250.445 75.5844 220.238 98.1997 189.254 117.786C162.868 134.466 123.265 156.883 84.4261 168.946C55.7709 178.025 23.5086 198.412 -4.08603 224.883C-29.787 249.535 -46.5483 275.086 -47.8328 291.562C-48.6376 301.965 -51.2747 315.395 -54.6079 332.398C-61.6968 368.522 -72.4065 423.108 -75.562 501.885C-76.7756 527.484 -65.8334 544.573 -43.0341 552.682C-20.1976 560.804 13.8074 559.95 58.0361 550.148C96.9029 541.536 142.496 526.108 189.889 505.542C281.856 465.632 363.867 413.745 389.329 379.356C404.205 359.406 414.255 339.089 420.056 317.248C425.259 297.664 426.914 277.24 425.116 254.801C421.699 212.115 406.153 168.733 391.117 126.781C375.314 82.5508 347.338 50.5773 318.103 43.331C309.794 41.2716 301.673 41.3044 293.963 43.3705L293.964 43.374Z" fill="#428EFF"/>
<path d="M81.1886 526.605C75.6681 528.085 70.2727 529.429 65.006 530.638C24.6741 539.898 -6.36657 540.928 -27.2518 533.707C-48.0619 526.515 -58.1674 511.191 -57.2853 488.161C-55.8009 418.513 -47.2898 368.651 -41.0744 332.248C-38.2532 315.727 -36.028 302.677 -35.2868 292.359C-34.0722 275.692 -19.1041 251.72 4.75298 228.232C29.7786 203.592 59.6772 184.333 86.7788 175.389C150.981 155.047 224.594 103.555 258.414 73.91C270.978 62.908 285.828 59.2176 301.364 63.2408C328.403 70.2399 354.179 99.6709 368.635 140.048C381.713 176.331 396.531 217.458 399.657 257.239C401.276 277.861 399.747 296.659 394.977 314.71C389.662 334.825 380.484 353.537 366.92 371.918C355.274 387.93 331.243 407.83 297.428 429.461C264.948 450.239 225.018 471.421 185.002 489.108C148.334 505.313 112.804 518.134 81.1921 526.605L81.1886 526.605ZM278.244 64.067C271.44 65.8902 264.981 69.423 259.041 74.6262C225.164 104.324 151.407 155.91 87.0706 176.296C60.107 185.196 30.3442 204.373 5.41876 228.911C-18.2749 252.239 -33.1388 275.985 -34.3386 292.428C-35.0826 302.791 -37.3136 315.861 -40.1387 332.41C-46.3467 368.785 -54.8497 418.606 -56.336 488.191C-57.1995 510.759 -47.3101 525.767 -26.9417 532.808C-6.22613 539.969 24.6351 538.927 64.7902 529.707C100.159 521.586 141.597 507.246 184.61 488.235C224.586 470.566 264.467 449.409 296.909 428.656C330.621 407.09 354.563 387.278 366.142 371.354C379.639 353.071 388.766 334.462 394.047 314.469C398.788 296.522 400.311 277.828 398.699 257.316C395.585 217.662 380.787 176.598 367.728 140.373C353.377 100.29 327.854 71.0876 301.117 64.165C293.24 62.1245 285.542 62.1116 278.241 64.0679L278.244 64.067Z" fill="#428EFF"/>
<path d="M82.4557 507.432C78.8208 508.406 75.2542 509.313 71.7445 510.152C35.4993 518.823 7.61572 520.049 -11.1354 513.796C-29.4793 507.678 -38.5123 494.453 -37.986 474.489C-38.183 413.399 -31.3665 365.861 -26.388 331.153C-24.2428 316.195 -22.3904 303.279 -21.7245 293.24C-20.6149 276.866 -7.14841 254.091 14.2932 232.322C36.6549 209.62 64.0426 191.571 89.4341 182.808C114.831 174.568 144.887 160.167 176.364 141.161C201.629 125.905 226.785 108.288 245.388 92.8285C256.854 83.3122 270.342 80.3051 284.391 84.1384C308.901 90.8225 332.196 117.46 345.187 153.658C358.961 191.614 370.573 225.799 373.179 259.764C374.614 278.453 373.216 295.514 368.909 311.92C364.115 330.176 355.865 347.175 343.686 363.88C333.148 378.682 311.456 397.026 280.955 416.929C251.774 435.969 215.813 455.443 179.695 471.764C145.254 487.323 111.887 499.557 82.4515 507.445L82.4557 507.432ZM262.494 84.7419C256.655 86.3064 251.1 89.2374 245.953 93.5089C227.32 108.996 202.122 126.642 176.822 141.918C145.287 160.959 115.168 175.392 89.7152 183.646C64.4582 192.366 37.1948 210.334 14.9281 232.942C-6.36921 254.564 -19.7417 277.131 -20.8354 293.298C-21.5034 303.371 -23.359 316.303 -25.5074 331.277C-30.482 365.957 -37.2939 413.456 -37.095 474.497C-37.6108 494.039 -28.7829 506.974 -10.8516 512.952C7.74315 519.153 35.4631 517.918 71.543 509.288C103.421 501.657 140.695 488.403 179.336 470.942C215.414 454.639 251.333 435.192 280.475 416.174C310.884 396.333 332.492 378.067 342.97 363.349C355.086 346.731 363.288 329.832 368.055 311.685C372.335 295.376 373.725 278.41 372.299 259.823C369.701 225.973 358.109 191.85 344.358 153.952C331.461 118.02 308.396 91.5948 284.161 84.9869C276.706 82.9533 269.406 82.8861 262.5 84.7366L262.494 84.7419Z" fill="#428EFF"/>
<path d="M83.839 488.303C82.0303 488.787 80.2424 489.251 78.4681 489.697C46.3105 497.781 21.5796 499.2 4.96175 493.912C-10.9143 488.86 -18.8733 477.726 -18.688 460.813C-20.6537 407.48 -15.4018 361.632 -11.5668 328.156C-10.0463 314.883 -8.73117 303.418 -8.16625 294.121C-7.14384 277.786 4.52082 256.752 23.833 236.412C43.5518 215.644 68.427 198.81 92.0865 190.23C139.312 174.471 197.901 138.499 232.358 111.748C242.738 103.706 254.868 101.385 267.436 105.035C289.405 111.415 310.214 135.256 321.741 167.261C333.574 199.6 344.385 231.201 346.701 262.276C347.951 279.029 346.687 294.354 342.843 309.115C338.573 325.515 331.249 340.792 320.458 355.826C311.029 369.416 291.671 386.214 264.483 404.394C238.602 421.699 206.605 439.466 174.388 454.423C142.21 469.358 111.043 481.013 83.8399 488.306L83.839 488.303ZM246.7 105.395C241.844 106.696 237.199 109.035 232.864 112.392C198.355 139.183 139.665 175.215 92.3602 191C68.8273 199.535 44.0669 216.293 24.4336 236.974C5.25005 257.179 -6.32988 278.025 -7.33966 294.17C-7.90688 303.486 -9.2227 314.962 -10.7439 328.246C-14.5784 361.696 -19.8247 407.509 -17.8624 460.802C-18.0418 477.331 -10.2778 488.198 5.21667 493.128C21.687 498.37 46.2668 496.946 78.273 488.899C106.656 481.754 139.777 469.583 174.044 453.672C206.221 438.733 238.18 420.991 264.029 403.706C291.134 385.582 310.415 368.861 319.791 355.349C330.528 340.397 337.808 325.207 342.053 308.907C345.875 294.234 347.129 278.998 345.889 262.336C343.582 231.364 332.787 199.822 320.976 167.541C309.537 135.779 288.941 112.131 267.217 105.824C260.158 103.774 253.24 103.65 246.705 105.401L246.7 105.395Z" fill="#428EFF"/>
<path d="M85.3825 469.224L85.1831 469.278C57.114 476.78 35.5357 478.392 21.052 474.072C7.64107 470.075 0.765408 461.011 0.617279 447.136C-3.3614 400.648 0.505146 355.227 3.3289 322.063C4.21304 311.676 4.97844 302.708 5.40541 294.996C6.32428 278.932 16.5246 259.066 33.3826 240.496C50.484 221.658 72.8527 206.036 94.7513 197.643C115.1 190.617 138.402 179.765 164.026 165.391C183.3 154.577 203.459 141.918 219.34 130.657C228.64 124.085 239.421 122.451 250.527 125.934C269.947 132.023 288.253 153.07 298.302 180.863C308.292 207.873 318.21 236.604 320.232 264.791C321.293 279.612 320.166 293.192 316.784 306.315C313.034 320.856 306.639 334.42 297.232 347.776C280.734 372.322 229.226 408.229 169.068 437.116C139.209 451.456 110.277 462.554 85.3825 469.224ZM230.834 126.015C226.975 127.049 223.265 128.807 219.772 131.275C203.872 142.549 183.684 155.227 164.39 166.05C138.731 180.445 115.384 191.313 95.0047 198.35C73.2257 206.7 50.9637 222.245 33.9384 241.002C17.1933 259.449 7.06752 279.145 6.15548 295.038C5.72689 302.759 4.96335 311.734 4.07666 322.125C1.25334 355.262 -2.60858 400.644 1.36773 447.096C1.51459 460.63 8.20876 469.451 21.2657 473.344C35.6143 477.622 57.0537 476.009 84.9864 468.543L85.1858 468.49C110.035 461.832 138.919 450.75 168.738 436.429C228.786 407.593 280.169 371.792 296.606 347.34C305.963 334.054 312.321 320.572 316.049 306.119C319.409 293.08 320.53 279.577 319.476 264.839C317.462 236.752 307.56 208.081 297.59 181.117C287.617 153.54 269.497 132.668 250.299 126.651C243.606 124.552 237.028 124.351 230.84 126.009L230.834 126.015Z" fill="#428EFF"/>
<path d="M87.038 450.269C65.4037 456.066 48.6249 457.426 37.1183 454.309C26.1773 451.343 20.3901 444.341 19.9153 433.487C13.3292 392.968 16.0962 345.613 18.1163 311.031C18.4319 305.604 18.7315 300.48 18.9642 295.877C19.7972 279.829 28.3066 261.615 42.9229 244.586C57.6634 227.418 77.0109 213.381 97.4033 205.062C111.666 199.922 150.801 184.239 206.314 149.575C214.547 144.462 224.001 143.517 233.658 146.853C250.5 152.669 266.285 170.915 274.853 194.466C283.095 216.453 292.032 242.026 293.752 267.308C295.572 294.027 289.11 317.713 273.999 339.727C266.776 350.916 252.082 364.632 231.517 379.388C211.93 393.441 188.491 407.435 163.735 419.857C138.169 432.683 113.321 442.736 91.8781 448.923C90.2388 449.396 88.6228 449.844 87.0345 450.27L87.038 450.269ZM214.871 146.582C212.037 147.341 209.294 148.537 206.68 150.159C197.798 155.705 179.687 166.713 158.175 178.116C135.59 190.091 115.23 199.371 97.6538 205.703C77.3731 213.977 58.1193 227.944 43.4513 245.032C28.935 261.945 20.4838 280.012 19.6587 295.908C19.426 300.512 19.1274 305.638 18.8127 311.069C16.7931 345.625 14.0282 392.946 20.6069 433.395L20.6102 433.435C21.0621 443.966 26.678 450.763 37.3031 453.641C49.3595 456.907 68.1681 455.048 91.6923 448.258C113.097 442.08 137.901 432.047 163.431 419.238C188.154 406.833 211.564 392.857 231.123 378.827C251.619 364.122 266.248 350.469 273.432 339.346C288.457 317.461 294.878 293.913 293.072 267.359C291.358 242.169 282.439 216.651 274.214 194.713C265.714 171.345 250.092 153.262 233.44 147.511C227.06 145.305 220.768 145.009 214.88 146.587L214.871 146.582Z" fill="#428EFF"/>
<path d="M89.4057 431.355C74.0441 435.471 61.6332 436.62 53.1724 434.669C44.6754 432.708 39.982 427.717 39.2183 419.829C28.5966 384.708 31.352 323.077 32.5254 296.754C34.051 263.867 61.8223 229.211 100.059 212.481C130.878 200.761 166.034 182.581 187.04 171.723C189.27 170.571 191.364 169.489 193.298 168.491C200.484 164.816 208.644 164.581 216.883 167.806C231.113 173.375 244.34 188.803 251.408 208.073C258.858 227.578 265.934 248.558 267.276 269.827C268.708 292.522 263.311 312.753 250.771 331.68C238.729 351.335 202.474 379.198 158.407 402.657C137.218 413.936 116.529 422.926 98.5781 428.658C95.4173 429.666 92.3558 430.569 89.4031 431.36L89.4057 431.355ZM198.738 167.06C196.971 167.533 195.251 168.196 193.582 169.048C191.648 170.042 189.556 171.123 187.327 172.279C166.312 183.144 131.137 201.336 100.297 213.061C62.2819 229.695 34.6676 264.125 33.1523 296.785C31.9758 323.082 29.2231 384.667 39.8273 419.68L39.8432 419.74C40.5663 427.35 45.0969 432.168 53.3134 434.061C63.2928 436.363 78.8825 434.287 98.3925 428.063C116.309 422.344 136.965 413.37 158.117 402.109C202.089 378.698 238.251 350.924 250.247 331.348C278.094 289.322 265.802 247.518 250.827 208.3C243.816 189.187 230.724 173.898 216.659 168.395C210.505 165.986 204.407 165.548 198.743 167.066L198.738 167.06Z" fill="#428EFF"/>
<path d="M92.1573 412.77C82.7675 415.285 74.9392 416.184 69.2628 415.262C63.1503 414.266 59.539 411.214 58.5304 406.191C52.9245 397.36 49.0828 380.769 47.106 356.879C45.6666 339.473 45.2952 317.88 46.091 297.634C47.4158 265.145 68.5842 236.087 102.718 219.902C114.872 214.94 127.455 209.519 139.624 204.277C155.363 197.497 170.228 191.097 180.286 187.406C188.761 184.333 198.456 186.411 207.582 193.253C216.234 199.739 223.66 210.098 227.965 221.675C238.304 248.042 240.255 262.602 240.803 272.342C241.851 291.004 237.513 307.782 227.544 323.629C217.674 340.934 189.167 364.66 153.148 385.536C130.14 398.872 108.72 408.335 92.1583 412.773L92.1573 412.77ZM182.319 187.352C181.699 187.518 181.088 187.712 180.479 187.931C170.435 191.615 155.579 198.012 139.847 204.79C127.675 210.034 115.088 215.452 102.945 220.41C69.0172 236.5 47.9652 265.376 46.6509 297.653C45.8575 317.879 46.2257 339.447 47.663 356.831C49.6337 380.67 53.4611 397.194 59.0312 405.933L59.0583 405.978L59.0714 406.027C60.0131 410.829 63.4694 413.75 69.3511 414.711C84.9174 417.25 116.919 405.884 152.864 385.05C188.803 364.222 217.233 340.577 227.062 323.343C236.974 307.589 241.281 290.921 240.242 272.377C239.206 253.914 232.857 235.691 227.439 221.88C223.173 210.393 215.813 200.126 207.245 193.703C198.931 187.471 190.156 185.256 182.319 187.355L182.319 187.352Z" fill="#428EFF"/>
<path d="M95.7029 394.81C91.8196 395.851 88.447 396.376 85.7097 396.334C81.7062 396.268 79.0709 395.011 77.8789 392.591C69.3962 389.061 64.9332 370.558 62.6812 355.632C60.1426 338.797 59.011 317.445 59.651 298.508C60.2225 282.211 64.1126 268.588 71.5465 256.855C79.1387 244.873 90.2027 235.214 105.372 227.317C128.729 216.795 153.028 208.557 167.285 206.325C174.235 205.268 181.976 207.877 189.08 213.665C195.725 219.082 201.353 226.959 204.516 235.279C213.426 257.101 221.455 285.945 204.313 315.576C196.682 330.419 175.739 350.159 148.298 368.361C128.245 381.666 108.993 391.249 95.6994 394.811L95.7029 394.81ZM155.202 209.491C141.264 213.226 123.161 219.845 105.592 227.76C90.5141 235.606 79.5142 245.211 71.969 257.116C64.5822 268.773 60.7153 282.315 60.1493 298.52C58.9466 333.914 63.7395 386.366 78.1547 392.165L78.2432 392.202L78.285 392.288C79.3676 394.579 81.8692 395.771 85.7181 395.833C97.7393 396.029 122.197 385.081 148.029 367.943C175.402 349.784 196.286 330.117 203.884 315.331C220.923 285.878 212.928 257.171 204.06 235.454L204.058 235.447C200.924 227.205 195.349 219.4 188.768 214.037C181.773 208.336 174.171 205.769 167.361 206.803C163.86 207.351 159.751 208.265 155.2 209.484L155.202 209.491Z" fill="#428EFF"/>
<path d="M101.379 378.562C99.7037 379.011 98.3416 379.147 97.3515 378.937C94.6649 380.091 92.0931 379.855 89.7085 378.246C82.7287 373.537 78.7226 358.209 76.5888 346.173C74.05 331.856 72.7936 314.363 73.2218 299.379C73.7157 282.428 76.1453 270.575 81.1006 260.941C86.3836 250.669 94.9466 242.339 108.041 234.728C123.206 226.828 141.366 223.108 154.309 225.249C165.925 227.22 177.043 238.808 181.078 248.872C190.115 269.485 190.119 289.217 181.095 307.512C177.891 314.867 172.063 323.202 163.783 332.281C156.613 340.14 147.784 348.321 138.242 355.935C123.307 367.857 109.067 376.494 101.381 378.554L101.379 378.562ZM97.3072 378.492L97.3751 378.507C98.3267 378.728 99.6493 378.598 101.283 378.161C118.202 373.627 168.292 335.816 180.7 307.341C189.671 289.153 189.663 269.546 180.676 249.051L180.675 249.044C176.683 239.088 165.7 227.625 154.23 225.679C141.372 223.553 123.317 227.255 108.237 235.11C95.2237 242.673 86.7158 250.943 81.4694 261.142C76.5465 270.715 74.1317 282.512 73.6385 299.394C73.2107 314.353 74.4692 331.811 77.0015 346.104C79.1206 358.057 83.0853 373.273 89.9372 377.896C92.2117 379.43 94.668 379.641 97.2356 378.518L97.2993 378.49L97.3072 378.492Z" fill="#428EFF"/>
<path d="M109.821 369.848C108.145 370.297 106.511 370.203 104.928 369.556C100.959 367.941 95.3139 361.971 90.9449 342.727C88.0167 329.826 86.4596 313.953 86.7775 300.265C87.1525 284.088 87.6008 273.642 90.6381 265.051C93.7794 256.161 99.5876 249.529 110.692 242.162C116.811 238.102 123.334 236.935 130.074 238.692C144.649 242.497 155.674 258.68 157.623 262.482C161.262 269.584 162.261 278.297 160.591 288.38C159.153 297.06 155.745 306.774 150.459 317.261C140.906 336.211 126.77 354.431 116.728 365.162C114.364 367.687 112.054 369.254 109.822 369.852L109.821 369.848ZM118.381 239.008C115.827 239.692 113.331 240.841 110.892 242.461C99.8615 249.781 94.091 256.359 90.9774 265.17C87.9613 273.714 87.5125 284.13 87.1396 300.272C86.5601 325.23 92.6083 364.146 105.064 369.224C108.6 370.666 112.433 369.216 116.459 364.915C126.484 354.204 140.595 336.017 150.13 317.098C155.399 306.646 158.797 296.965 160.227 288.32C161.884 278.315 160.897 269.678 157.296 262.648C155.363 258.876 144.422 242.813 129.977 239.044C126.023 238.013 122.143 238.004 118.375 239.013L118.381 239.008Z" fill="#428EFF"/>
</g>
</svg>
